<svg height="542" width="720" xmlns="http://www.w3.org/2000/svg">
<rect height="542" fill="#555" width="720"></rect>
<text fill="#7f7" font-family="Courier New" font-size="12" xml:space="preserve">
<tspan x="10" y="26">3 megabytes installed</tspan>
<tspan x="10" y="42"></tspan>
<tspan x="10" y="58">node_modules</tspan>
<tspan x="10" y="74">└─┬ esperanto@0.7.6 </tspan>
<tspan x="10" y="90">  ├── acorn@1.2.2 </tspan>
<tspan x="10" y="106">  ├─┬ chalk@1.1.3 </tspan>
<tspan x="10" y="122">  │ ├── ansi-styles@2.2.1 </tspan>
<tspan x="10" y="138">  │ ├── escape-string-regexp@1.0.5 </tspan>
<tspan x="10" y="154">  │ ├─┬ has-ansi@2.0.0 </tspan>
<tspan x="10" y="170">  │ │ └── ansi-regex@2.1.1 </tspan>
<tspan x="10" y="186">  │ ├── strip-ansi@3.0.1 </tspan>
<tspan x="10" y="202">  │ └── supports-color@2.0.0 </tspan>
<tspan x="10" y="218">  ├─┬ magic-string@0.4.9 </tspan>
<tspan x="10" y="234">  │ └── vlq@0.2.2 </tspan>
<tspan x="10" y="250">  ├── minimist@1.2.0 </tspan>
<tspan x="10" y="266">  └─┬ sander@0.5.1 </tspan>
<tspan x="10" y="282">    ├── es6-promise@3.3.1 </tspan>
<tspan x="10" y="298">    ├── graceful-fs@4.1.11 </tspan>
<tspan x="10" y="314">    ├─┬ mkdirp@0.5.1 </tspan>
<tspan x="10" y="330">    │ └── minimist@0.0.8 </tspan>
<tspan x="10" y="346">    └─┬ rimraf@2.6.1 </tspan>
<tspan x="10" y="362">      └─┬ glob@7.1.1 </tspan>
<tspan x="10" y="378">        ├── fs.realpath@1.0.0 </tspan>
<tspan x="10" y="394">        ├─┬ inflight@1.0.6 </tspan>
<tspan x="10" y="410">        │ └── wrappy@1.0.2 </tspan>
<tspan x="10" y="426">        ├── inherits@2.0.3 </tspan>
<tspan x="10" y="442">        ├─┬ minimatch@3.0.3 </tspan>
<tspan x="10" y="458">        │ └─┬ brace-expansion@1.1.7 </tspan>
<tspan x="10" y="474">        │   ├── balanced-match@0.4.2 </tspan>
<tspan x="10" y="490">        │   └── concat-map@0.0.1 </tspan>
<tspan x="10" y="506">        ├── once@1.4.0 </tspan>
<tspan x="10" y="522">        └── path-is-absolute@1.0.1</tspan>
</text>
</svg>
